<svg xmlns="http://www.w3.org/2000/svg" xmlns:xlink="http://www.w3.org/1999/xlink" width="500" zoomAndPan="magnify" viewBox="0 0 375 374.999991" height="500" preserveAspectRatio="xMidYMid meet" version="1.0"><defs><g/><clipPath id="e14e8d9adf"><path d="M 117.851562 87.628906 L 257.144531 87.628906 L 257.144531 237.03125 L 117.851562 237.03125 Z M 117.851562 87.628906 " clip-rule="nonzero"/></clipPath><clipPath id="af43b0cdd4"><path d="M 118 87.03125 L 257 87.03125 L 257 234 L 118 234 Z M 118 87.03125 " clip-rule="nonzero"/></clipPath><clipPath id="af2498dddf"><path d="M 117.851562 87.03125 L 257.144531 87.03125 L 257.144531 204.929688 L 117.851562 204.929688 Z M 117.851562 87.03125 " clip-rule="nonzero"/></clipPath></defs><g clip-path="url(#e14e8d9adf)"><path fill="#000000" d="M 257.144531 204.886719 L 257.144531 208.457031 L 245.824219 208.457031 L 245.824219 211.433594 L 231.542969 211.433594 L 231.542969 212.03125 L 232.140625 212.03125 L 232.140625 215.601562 L 228.570312 215.601562 L 228.570312 219.171875 L 217.855469 219.171875 L 217.855469 226.316406 L 203.570312 226.316406 L 203.570312 233.460938 L 196.425781 233.460938 L 196.425781 232.859375 L 195.824219 232.859375 L 195.824219 233.460938 L 196.425781 233.460938 L 196.425781 237.03125 L 178.570312 237.03125 L 178.570312 233.460938 L 179.167969 233.460938 L 179.167969 232.859375 L 178.570312 232.859375 L 178.570312 233.460938 L 171.425781 233.460938 L 171.425781 226.316406 L 157.140625 226.316406 L 157.140625 219.171875 L 146.425781 219.171875 L 146.425781 215.601562 L 142.855469 215.601562 L 142.855469 212.03125 L 143.453125 212.03125 L 143.453125 211.433594 L 129.171875 211.433594 L 129.171875 208.457031 L 117.851562 208.457031 L 117.851562 204.886719 L 118.453125 204.886719 L 118.453125 201.917969 L 122.027344 201.917969 L 122.027344 201.316406 L 121.425781 201.316406 L 121.425781 197.746094 L 124.996094 197.746094 L 124.996094 198.34375 L 125.597656 198.34375 L 125.597656 194.773438 L 154.167969 194.773438 L 154.167969 194.175781 L 153.566406 194.175781 L 153.566406 187.03125 L 149.996094 187.03125 L 149.996094 183.460938 L 142.855469 183.460938 L 142.855469 140.601562 L 143.453125 140.601562 L 143.453125 134.058594 L 147.023438 134.058594 L 147.023438 130.488281 L 150.597656 130.488281 L 150.597656 97.144531 L 147.023438 97.144531 L 147.023438 93.574219 L 143.453125 93.574219 L 143.453125 90 L 139.882812 90 L 139.882812 87.628906 L 149.398438 87.628906 L 149.398438 91.199219 L 152.96875 91.199219 L 152.96875 94.773438 L 156.542969 94.773438 L 156.542969 98.34375 L 160.113281 98.34375 L 160.113281 105.488281 L 163.679688 105.488281 L 163.679688 116.199219 L 172.023438 116.199219 L 172.023438 112.628906 L 182.738281 112.628906 L 182.738281 101.917969 L 192.257812 101.917969 L 192.257812 112.628906 L 202.96875 112.628906 L 202.96875 116.199219 L 211.3125 116.199219 L 211.3125 105.488281 L 214.882812 105.488281 L 214.882812 94.773438 L 222.027344 94.773438 L 222.027344 87.628906 L 235.113281 87.628906 L 235.113281 90 L 231.542969 90 L 231.542969 93.574219 L 227.972656 93.574219 L 227.972656 100.71875 L 224.398438 100.71875 L 224.398438 130.488281 L 227.972656 130.488281 L 227.972656 134.058594 L 231.542969 134.058594 L 231.542969 140.601562 L 232.140625 140.601562 L 232.140625 183.460938 L 221.429688 183.460938 L 221.429688 194.175781 L 220.828125 194.175781 L 220.828125 194.773438 L 249.398438 194.773438 L 249.398438 198.34375 L 250 198.34375 L 250 197.746094 L 253.570312 197.746094 L 253.570312 201.316406 L 252.96875 201.316406 L 252.96875 201.917969 L 256.542969 201.917969 L 256.542969 204.886719 L 257.144531 204.886719 " fill-opacity="1" fill-rule="nonzero"/></g><g clip-path="url(#af43b0cdd4)"><path fill="#ffbd59" d="M 256.542969 201.917969 L 256.542969 204.289062 L 218.453125 204.289062 L 218.453125 194.773438 L 249.398438 194.773438 L 249.398438 201.917969 Z M 156.542969 204.289062 L 118.453125 204.289062 L 118.453125 201.917969 L 125.597656 201.917969 L 125.597656 194.773438 L 156.542969 194.773438 Z M 168.457031 215 L 168.457031 219.773438 L 163.679688 219.773438 L 163.679688 215 Z M 167.253906 212.03125 L 167.855469 212.03125 L 167.855469 208.457031 L 160.710938 208.457031 L 160.710938 204.886719 L 157.140625 204.886719 L 157.140625 208.457031 L 128.570312 208.457031 L 128.570312 212.03125 L 161.3125 212.03125 L 161.3125 222.144531 L 170.824219 222.144531 L 170.824219 212.632812 L 167.253906 212.632812 Z M 193.457031 187.628906 L 188.683594 187.628906 L 188.683594 182.859375 L 193.457031 182.859375 Z M 193.457031 194.773438 L 188.683594 194.773438 L 188.683594 190 L 193.457031 190 Z M 193.457031 201.917969 L 188.683594 201.917969 L 188.683594 197.144531 L 193.457031 197.144531 Z M 185.113281 176.917969 L 185.113281 173.34375 L 182.738281 173.34375 L 182.738281 176.917969 L 179.167969 176.917969 L 179.167969 180.488281 L 170.824219 180.488281 L 170.824219 176.917969 L 167.253906 176.917969 L 167.253906 172.144531 L 167.855469 172.144531 L 167.855469 172.742188 L 172.023438 172.742188 L 172.023438 175.71875 L 177.96875 175.71875 L 177.96875 172.742188 L 182.136719 172.742188 L 182.136719 169.171875 L 181.539062 169.171875 L 181.539062 165.003906 L 193.457031 165.003906 L 193.457031 169.171875 L 192.855469 169.171875 L 192.855469 172.742188 L 197.027344 172.742188 L 197.027344 175.71875 L 202.96875 175.71875 L 202.96875 172.742188 L 207.140625 172.742188 L 207.140625 172.144531 L 207.742188 172.144531 L 207.742188 176.917969 L 204.167969 176.917969 L 204.167969 180.488281 L 195.824219 180.488281 L 195.824219 176.917969 L 192.257812 176.917969 L 192.257812 173.34375 L 189.882812 173.34375 L 189.882812 176.917969 Z M 186.3125 187.628906 L 181.539062 187.628906 L 181.539062 182.859375 L 186.3125 182.859375 Z M 186.3125 194.773438 L 181.539062 194.773438 L 181.539062 190 L 186.3125 190 Z M 186.3125 201.917969 L 181.539062 201.917969 L 181.539062 197.144531 L 186.3125 197.144531 Z M 174.398438 165.601562 L 175 165.601562 L 175 151.316406 L 174.398438 151.316406 L 174.398438 150.714844 L 179.167969 150.714844 L 179.167969 166.203125 L 174.398438 166.203125 Z M 163.679688 122.144531 L 167.253906 122.144531 L 167.253906 118.570312 L 174.398438 118.570312 L 174.398438 115 L 179.167969 115 L 179.167969 119.769531 L 175.597656 119.769531 L 175.597656 123.34375 L 168.457031 123.34375 L 168.457031 126.914062 L 164.882812 126.914062 L 164.882812 130.488281 L 161.3125 130.488281 L 161.3125 137.027344 L 157.140625 137.027344 L 157.140625 147.746094 L 157.742188 147.746094 L 157.742188 155.484375 L 157.140625 155.484375 L 157.140625 154.886719 L 153.566406 154.886719 L 153.566406 129.886719 L 157.140625 129.886719 L 157.140625 129.289062 L 160.113281 129.289062 L 160.113281 126.3125 L 160.710938 126.3125 L 160.710938 125.714844 L 163.679688 125.714844 Z M 185.113281 150.714844 L 185.710938 150.714844 L 185.710938 151.316406 L 189.285156 151.316406 L 189.285156 150.714844 L 189.882812 150.714844 L 189.882812 155.484375 L 189.285156 155.484375 L 189.285156 154.886719 L 185.710938 154.886719 L 185.710938 155.484375 L 185.113281 155.484375 Z M 195.824219 150.714844 L 200.597656 150.714844 L 200.597656 151.316406 L 199.996094 151.316406 L 199.996094 165.601562 L 200.597656 165.601562 L 200.597656 166.203125 L 195.824219 166.203125 Z M 195.824219 115 L 200.597656 115 L 200.597656 118.570312 L 207.742188 118.570312 L 207.742188 122.144531 L 211.3125 122.144531 L 211.3125 125.714844 L 214.285156 125.714844 L 214.285156 126.3125 L 214.882812 126.3125 L 214.882812 129.289062 L 217.855469 129.289062 L 217.855469 129.886719 L 221.429688 129.886719 L 221.429688 154.886719 L 217.855469 154.886719 L 217.855469 155.484375 L 217.253906 155.484375 L 217.253906 147.746094 L 217.855469 147.746094 L 217.855469 137.027344 L 213.683594 137.027344 L 213.683594 130.488281 L 210.113281 130.488281 L 210.113281 126.914062 L 206.539062 126.914062 L 206.539062 123.34375 L 199.398438 123.34375 L 199.398438 119.769531 L 195.824219 119.769531 Z M 195.824219 204.289062 L 199.398438 204.289062 L 199.398438 197.144531 L 204.167969 197.144531 L 204.167969 204.289062 L 210.113281 204.289062 L 210.113281 200.71875 L 213.683594 200.71875 L 213.683594 190 L 217.253906 190 L 217.253906 165.601562 L 217.855469 165.601562 L 217.855469 162.03125 L 221.429688 162.03125 L 221.429688 158.460938 L 224.996094 158.460938 L 224.996094 157.859375 L 225.597656 157.859375 L 225.597656 161.429688 L 227.972656 161.429688 L 227.972656 154.886719 L 228.570312 154.886719 L 228.570312 140 L 231.542969 140 L 231.542969 137.027344 L 232.140625 137.027344 L 232.140625 133.457031 L 228.570312 133.457031 L 228.570312 129.886719 L 224.996094 129.886719 L 224.996094 126.3125 L 224.398438 126.3125 L 224.398438 108.457031 L 224.996094 108.457031 L 224.996094 101.316406 L 228.570312 101.316406 L 228.570312 94.171875 L 232.140625 94.171875 L 232.140625 90.597656 L 231.542969 90.597656 L 231.542969 90 L 235.113281 90 L 235.113281 87.628906 L 222.027344 87.628906 L 222.027344 94.171875 L 221.429688 94.171875 L 221.429688 94.773438 L 214.882812 94.773438 L 214.882812 105.488281 L 211.3125 105.488281 L 211.3125 116.199219 L 202.96875 116.199219 L 202.96875 112.628906 L 192.257812 112.628906 L 192.257812 101.917969 L 182.738281 101.917969 L 182.738281 112.628906 L 172.023438 112.628906 L 172.023438 116.199219 L 163.679688 116.199219 L 163.679688 105.488281 L 160.113281 105.488281 L 160.113281 98.34375 L 157.140625 98.34375 L 157.140625 97.742188 L 156.542969 97.742188 L 156.542969 94.773438 L 153.566406 94.773438 L 153.566406 94.171875 L 152.96875 94.171875 L 152.96875 91.199219 L 149.996094 91.199219 L 149.996094 90.597656 L 149.398438 90.597656 L 149.398438 87.628906 L 139.882812 87.628906 L 139.882812 90 L 143.453125 90 L 143.453125 90.597656 L 142.855469 90.597656 L 142.855469 94.171875 L 146.425781 94.171875 L 146.425781 97.742188 L 149.996094 97.742188 L 149.996094 108.457031 L 150.597656 108.457031 L 150.597656 122.746094 L 149.996094 122.746094 L 149.996094 129.886719 L 146.425781 129.886719 L 146.425781 133.457031 L 142.855469 133.457031 L 142.855469 137.027344 L 143.453125 137.027344 L 143.453125 140 L 146.425781 140 L 146.425781 158.460938 L 147.023438 158.460938 L 147.023438 161.429688 L 150.597656 161.429688 L 150.597656 166.203125 L 147.023438 166.203125 L 147.023438 168.574219 L 150.597656 168.574219 L 150.597656 173.34375 L 147.023438 173.34375 L 147.023438 175.71875 L 150.597656 175.71875 L 150.597656 179.285156 L 154.167969 179.285156 L 154.167969 182.859375 L 157.742188 182.859375 L 157.742188 190 L 161.3125 190 L 161.3125 200.71875 L 164.882812 200.71875 L 164.882812 204.289062 L 170.824219 204.289062 L 170.824219 197.144531 L 175.597656 197.144531 L 175.597656 204.289062 L 179.167969 204.289062 L 179.167969 207.859375 L 186.3125 207.859375 L 186.3125 211.433594 L 188.683594 211.433594 L 188.683594 207.859375 L 195.824219 207.859375 Z M 224.398438 168.574219 L 224.398438 173.34375 L 227.972656 173.34375 L 227.972656 175.71875 L 224.398438 175.71875 L 224.398438 179.285156 L 222.027344 179.285156 L 222.027344 162.628906 L 224.398438 162.628906 L 224.398438 166.203125 L 227.972656 166.203125 L 227.972656 168.574219 Z M 196.425781 215.601562 L 199.996094 215.601562 L 199.996094 229.890625 L 196.425781 229.890625 L 196.425781 233.460938 L 189.285156 233.460938 L 189.285156 215.601562 L 192.855469 215.601562 L 192.855469 226.316406 L 196.425781 226.316406 Z M 182.136719 215.601562 L 185.710938 215.601562 L 185.710938 233.460938 L 178.570312 233.460938 L 178.570312 229.890625 L 175 229.890625 L 175 215.601562 L 178.570312 215.601562 L 178.570312 226.316406 L 182.136719 226.316406 Z M 211.3125 219.773438 L 206.539062 219.773438 L 206.539062 215 L 211.3125 215 Z M 239.285156 208.457031 L 214.285156 208.457031 L 214.285156 204.886719 L 210.714844 204.886719 L 210.714844 208.457031 L 207.140625 208.457031 L 207.140625 212.03125 L 207.742188 212.03125 L 207.742188 212.632812 L 204.167969 212.632812 L 204.167969 222.144531 L 213.683594 222.144531 L 213.683594 212.03125 L 246.425781 212.03125 L 246.425781 208.457031 L 239.285156 208.457031 " fill-opacity="1" fill-rule="nonzero"/></g><path fill="#ffffff" d="M 146.425781 158.460938 L 146.425781 162.03125 L 149.996094 162.03125 L 149.996094 158.460938 Z M 149.996094 165.601562 L 146.425781 165.601562 L 146.425781 169.171875 L 149.996094 169.171875 L 149.996094 172.742188 L 146.425781 172.742188 L 146.425781 176.316406 L 149.996094 176.316406 L 149.996094 179.886719 L 153.566406 179.886719 L 153.566406 162.03125 L 149.996094 162.03125 Z M 160.710938 162.03125 L 164.28125 162.03125 L 164.28125 154.886719 L 160.710938 154.886719 L 160.710938 147.746094 L 157.140625 147.746094 L 157.140625 158.460938 L 160.710938 158.460938 Z M 164.28125 183.460938 L 160.710938 183.460938 L 160.710938 187.03125 L 164.28125 187.03125 Z M 164.28125 179.886719 L 167.855469 179.886719 L 167.855469 204.886719 L 164.28125 204.886719 L 164.28125 201.316406 L 160.710938 201.316406 L 160.710938 194.175781 L 164.28125 194.175781 L 164.28125 190.601562 L 157.140625 190.601562 L 157.140625 165.601562 L 160.710938 165.601562 L 160.710938 172.742188 L 164.28125 172.742188 Z M 171.425781 151.316406 L 175 151.316406 L 175 147.746094 L 178.570312 147.746094 L 178.570312 119.171875 L 175 119.171875 L 175 122.746094 L 167.855469 122.746094 L 167.855469 126.3125 L 164.28125 126.3125 L 164.28125 129.886719 L 160.710938 129.886719 L 160.710938 137.027344 L 164.28125 137.027344 L 164.28125 147.746094 L 167.855469 147.746094 L 167.855469 151.316406 Z M 171.425781 172.742188 L 171.425781 176.316406 L 178.570312 176.316406 L 178.570312 172.742188 Z M 178.570312 154.886719 L 178.570312 165.601562 L 196.425781 165.601562 L 196.425781 151.316406 L 192.855469 151.316406 L 192.855469 147.746094 L 189.285156 147.746094 L 189.285156 158.460938 L 185.710938 158.460938 L 185.710938 147.746094 L 182.136719 147.746094 L 182.136719 151.316406 L 178.570312 151.316406 Z M 178.570312 197.746094 L 178.570312 201.316406 L 182.136719 201.316406 L 182.136719 197.746094 Z M 189.285156 119.171875 L 192.855469 119.171875 L 192.855469 101.316406 L 182.136719 101.316406 L 182.136719 119.171875 Z M 196.425781 201.316406 L 196.425781 197.746094 L 192.855469 197.746094 L 192.855469 201.316406 Z M 196.425781 172.742188 L 196.425781 176.316406 L 203.570312 176.316406 L 203.570312 172.742188 Z M 192.855469 187.03125 L 192.855469 183.460938 L 189.285156 183.460938 L 189.285156 187.03125 Z M 185.710938 187.03125 L 185.710938 183.460938 L 182.136719 183.460938 L 182.136719 187.03125 Z M 199.996094 179.886719 L 203.570312 179.886719 L 203.570312 187.03125 L 199.996094 187.03125 L 199.996094 190.601562 L 196.425781 190.601562 L 196.425781 194.175781 L 192.855469 194.175781 L 192.855469 190.601562 L 189.285156 190.601562 L 189.285156 194.175781 L 192.855469 194.175781 L 192.855469 197.746094 L 189.285156 197.746094 L 189.285156 201.316406 L 192.855469 201.316406 L 192.855469 204.886719 L 189.285156 204.886719 L 189.285156 212.03125 L 185.710938 212.03125 L 185.710938 204.886719 L 182.136719 204.886719 L 182.136719 201.316406 L 185.710938 201.316406 L 185.710938 197.746094 L 182.136719 197.746094 L 182.136719 194.175781 L 185.710938 194.175781 L 185.710938 190.601562 L 182.136719 190.601562 L 182.136719 194.175781 L 178.570312 194.175781 L 178.570312 190.601562 L 175 190.601562 L 175 187.03125 L 171.425781 187.03125 L 171.425781 179.886719 L 175 179.886719 L 175 183.460938 L 178.570312 183.460938 L 178.570312 179.886719 L 196.425781 179.886719 L 196.425781 183.460938 L 199.996094 183.460938 Z M 207.140625 147.746094 L 210.714844 147.746094 L 210.714844 137.027344 L 214.285156 137.027344 L 214.285156 129.886719 L 210.714844 129.886719 L 210.714844 126.3125 L 207.140625 126.3125 L 207.140625 122.746094 L 199.996094 122.746094 L 199.996094 119.171875 L 196.425781 119.171875 L 196.425781 147.746094 L 199.996094 147.746094 L 199.996094 151.316406 L 207.140625 151.316406 Z M 214.285156 151.316406 L 214.285156 154.886719 L 210.714844 154.886719 L 210.714844 162.03125 L 214.285156 162.03125 L 214.285156 158.460938 L 217.855469 158.460938 L 217.855469 147.746094 L 214.285156 147.746094 Z M 214.285156 183.460938 L 210.714844 183.460938 L 210.714844 187.03125 L 214.285156 187.03125 Z M 214.285156 165.601562 L 217.855469 165.601562 L 217.855469 190.601562 L 210.714844 190.601562 L 210.714844 194.175781 L 214.285156 194.175781 L 214.285156 201.316406 L 210.714844 201.316406 L 210.714844 204.886719 L 207.140625 204.886719 L 207.140625 176.316406 L 210.714844 176.316406 L 210.714844 172.742188 L 214.285156 172.742188 Z M 221.429688 165.601562 L 221.429688 179.886719 L 224.996094 179.886719 L 224.996094 176.316406 L 228.570312 176.316406 L 228.570312 172.742188 L 224.996094 172.742188 L 224.996094 169.171875 L 228.570312 169.171875 L 228.570312 165.601562 L 224.996094 165.601562 L 224.996094 162.03125 L 221.429688 162.03125 Z M 228.570312 154.886719 L 228.570312 162.03125 L 224.996094 162.03125 L 224.996094 154.886719 L 228.570312 154.886719 " fill-opacity="1" fill-rule="nonzero"/><path fill="#513784" d="M 132.140625 201.316406 L 135.710938 201.316406 L 135.710938 197.746094 L 132.140625 197.746094 Z M 139.285156 201.316406 L 142.855469 201.316406 L 142.855469 197.746094 L 139.285156 197.746094 Z M 146.425781 137.027344 L 142.855469 137.027344 L 142.855469 140.601562 L 146.425781 140.601562 Z M 146.425781 201.316406 L 149.996094 201.316406 L 149.996094 197.746094 L 146.425781 197.746094 Z M 153.566406 119.171875 L 153.566406 108.457031 L 149.996094 108.457031 L 149.996094 122.746094 L 153.566406 122.746094 Z M 149.996094 158.460938 L 149.996094 162.03125 L 153.566406 162.03125 L 153.566406 158.460938 Z M 153.566406 165.601562 L 153.566406 183.460938 L 157.140625 183.460938 L 157.140625 162.03125 L 153.566406 162.03125 Z M 185.710938 122.746094 L 185.710938 126.3125 L 182.136719 126.3125 L 182.136719 144.171875 L 192.855469 144.171875 L 192.855469 126.3125 L 189.285156 126.3125 L 189.285156 122.746094 Z M 167.855469 122.746094 L 164.28125 122.746094 L 164.28125 115.601562 L 171.425781 115.601562 L 171.425781 112.03125 L 182.136719 112.03125 L 182.136719 119.171875 L 192.855469 119.171875 L 192.855469 112.03125 L 203.570312 112.03125 L 203.570312 115.601562 L 210.714844 115.601562 L 210.714844 122.746094 L 207.140625 122.746094 L 207.140625 119.171875 L 199.996094 119.171875 L 199.996094 115.601562 L 196.425781 115.601562 L 196.425781 147.746094 L 199.996094 147.746094 L 199.996094 151.316406 L 192.855469 151.316406 L 192.855469 147.746094 L 182.136719 147.746094 L 182.136719 151.316406 L 175 151.316406 L 175 147.746094 L 178.570312 147.746094 L 178.570312 115.601562 L 175 115.601562 L 175 119.171875 L 167.855469 119.171875 Z M 167.855469 215.601562 L 164.28125 215.601562 L 164.28125 219.171875 L 167.855469 219.171875 Z M 167.855469 212.03125 L 171.425781 212.03125 L 171.425781 222.746094 L 160.710938 222.746094 L 160.710938 212.03125 Z M 171.425781 179.886719 L 171.425781 176.316406 L 167.855469 176.316406 L 167.855469 169.171875 L 182.136719 169.171875 L 182.136719 165.601562 L 167.855469 165.601562 L 167.855469 158.460938 L 164.28125 158.460938 L 164.28125 165.601562 L 160.710938 165.601562 L 160.710938 172.742188 L 164.28125 172.742188 L 164.28125 179.886719 L 167.855469 179.886719 L 167.855469 187.03125 L 171.425781 187.03125 Z M 175 183.460938 L 178.570312 183.460938 L 178.570312 179.886719 L 175 179.886719 Z M 182.136719 201.316406 L 178.570312 201.316406 L 178.570312 197.746094 L 182.136719 197.746094 L 182.136719 194.175781 L 178.570312 194.175781 L 178.570312 190.601562 L 175 190.601562 L 175 187.03125 L 171.425781 187.03125 L 171.425781 197.746094 L 175 197.746094 L 175 204.886719 L 178.570312 204.886719 L 178.570312 208.457031 L 185.710938 208.457031 L 185.710938 204.886719 L 182.136719 204.886719 Z M 192.855469 179.886719 L 196.425781 179.886719 L 196.425781 176.316406 L 192.855469 176.316406 L 192.855469 172.742188 L 189.285156 172.742188 L 189.285156 176.316406 L 185.710938 176.316406 L 185.710938 172.742188 L 182.136719 172.742188 L 182.136719 176.316406 L 178.570312 176.316406 L 178.570312 179.886719 Z M 199.996094 183.460938 L 199.996094 179.886719 L 196.425781 179.886719 L 196.425781 183.460938 Z M 199.996094 190.601562 L 196.425781 190.601562 L 196.425781 194.175781 L 192.855469 194.175781 L 192.855469 197.746094 L 196.425781 197.746094 L 196.425781 201.316406 L 192.855469 201.316406 L 192.855469 204.886719 L 189.285156 204.886719 L 189.285156 208.457031 L 196.425781 208.457031 L 196.425781 204.886719 L 199.996094 204.886719 L 199.996094 197.746094 L 203.570312 197.746094 L 203.570312 187.03125 L 199.996094 187.03125 Z M 203.570312 179.886719 L 203.570312 187.03125 L 207.140625 187.03125 L 207.140625 176.316406 L 203.570312 176.316406 Z M 210.714844 162.03125 L 210.714844 158.460938 L 207.140625 158.460938 L 207.140625 165.601562 L 192.855469 165.601562 L 192.855469 169.171875 L 207.140625 169.171875 L 207.140625 176.316406 L 210.714844 176.316406 L 210.714844 172.742188 L 214.285156 172.742188 L 214.285156 165.601562 L 210.714844 165.601562 Z M 210.714844 215.601562 L 207.140625 215.601562 L 207.140625 219.171875 L 210.714844 219.171875 Z M 210.714844 212.03125 L 214.285156 212.03125 L 214.285156 222.746094 L 203.570312 222.746094 L 203.570312 212.03125 Z M 224.996094 122.746094 L 224.996094 108.457031 L 221.429688 108.457031 L 221.429688 126.3125 L 224.996094 126.3125 Z M 224.996094 201.316406 L 228.570312 201.316406 L 228.570312 197.746094 L 224.996094 197.746094 Z M 232.140625 137.027344 L 228.570312 137.027344 L 228.570312 140.601562 L 232.140625 140.601562 Z M 232.140625 201.316406 L 235.710938 201.316406 L 235.710938 197.746094 L 232.140625 197.746094 Z M 242.855469 197.746094 L 242.855469 201.316406 L 239.285156 201.316406 L 239.285156 197.746094 L 242.855469 197.746094 " fill-opacity="1" fill-rule="nonzero"/><g clip-path="url(#af2498dddf)"><path fill="#ff1616" d="M 149.996094 87.03125 L 149.996094 90.597656 L 139.285156 90.597656 L 139.285156 87.03125 Z M 153.566406 90.597656 L 153.566406 94.171875 L 149.996094 94.171875 L 149.996094 90.597656 Z M 146.425781 201.316406 L 146.425781 197.746094 L 149.996094 197.746094 L 149.996094 201.316406 Z M 139.285156 201.316406 L 139.285156 197.746094 L 142.855469 197.746094 L 142.855469 201.316406 Z M 132.140625 201.316406 L 132.140625 197.746094 L 135.710938 197.746094 L 135.710938 201.316406 Z M 149.996094 194.175781 L 124.996094 194.175781 L 124.996094 201.316406 L 117.851562 201.316406 L 117.851562 204.886719 L 157.140625 204.886719 L 157.140625 194.175781 Z M 157.140625 94.171875 L 157.140625 97.742188 L 153.566406 97.742188 L 153.566406 94.171875 Z M 160.710938 104.886719 L 164.28125 104.886719 L 164.28125 126.3125 L 160.710938 126.3125 L 160.710938 108.457031 L 157.140625 108.457031 L 157.140625 97.742188 L 160.710938 97.742188 Z M 157.140625 126.3125 L 160.710938 126.3125 L 160.710938 129.886719 L 157.140625 129.886719 Z M 160.710938 183.460938 L 164.28125 183.460938 L 164.28125 187.03125 L 160.710938 187.03125 Z M 160.710938 190.601562 L 164.28125 190.601562 L 164.28125 194.175781 L 160.710938 194.175781 Z M 167.855469 187.03125 L 171.425781 187.03125 L 171.425781 204.886719 L 167.855469 204.886719 Z M 189.285156 126.3125 L 185.710938 126.3125 L 185.710938 122.746094 L 189.285156 122.746094 Z M 189.285156 126.3125 L 192.855469 126.3125 L 192.855469 144.171875 L 182.136719 144.171875 L 182.136719 126.3125 L 185.710938 126.3125 L 185.710938 133.457031 L 189.285156 133.457031 Z M 203.570312 187.03125 L 207.140625 187.03125 L 207.140625 204.886719 L 203.570312 204.886719 Z M 214.285156 122.746094 L 214.285156 126.3125 L 210.714844 126.3125 L 210.714844 104.886719 L 214.285156 104.886719 L 214.285156 94.171875 L 221.429688 94.171875 L 221.429688 97.742188 L 217.855469 97.742188 L 217.855469 108.457031 L 214.285156 108.457031 Z M 210.714844 183.460938 L 214.285156 183.460938 L 214.285156 187.03125 L 210.714844 187.03125 Z M 210.714844 190.601562 L 214.285156 190.601562 L 214.285156 194.175781 L 210.714844 194.175781 Z M 214.285156 129.886719 L 214.285156 126.3125 L 217.855469 126.3125 L 217.855469 129.886719 Z M 224.996094 94.171875 L 221.429688 94.171875 L 221.429688 87.03125 L 235.710938 87.03125 L 235.710938 90.597656 L 224.996094 90.597656 Z M 239.285156 201.316406 L 239.285156 197.746094 L 242.855469 197.746094 L 242.855469 201.316406 Z M 232.140625 201.316406 L 232.140625 197.746094 L 235.710938 197.746094 L 235.710938 201.316406 Z M 224.996094 201.316406 L 224.996094 197.746094 L 228.570312 197.746094 L 228.570312 201.316406 Z M 253.570312 201.316406 L 250 201.316406 L 250 194.175781 L 217.855469 194.175781 L 217.855469 204.886719 L 257.144531 204.886719 L 257.144531 201.316406 L 253.570312 201.316406 " fill-opacity="1" fill-rule="nonzero"/></g><g fill="#090909" fill-opacity="1"><g transform="translate(137.730464, 262.72932)"><g><path d="M 20.359375 -13.359375 C 20.359375 -12.179688 20.039062 -11.113281 19.40625 -10.15625 C 18.769531 -9.207031 17.84375 -8.507812 16.625 -8.0625 L 20.921875 0 L 13.96875 0 L 10.5625 -7.03125 L 8.265625 -7.03125 L 8.265625 0 L 2.078125 0 L 2.078125 -19.265625 L 13.859375 -19.265625 C 15.242188 -19.265625 16.425781 -19 17.40625 -18.46875 C 18.382812 -17.9375 19.117188 -17.21875 19.609375 -16.3125 C 20.109375 -15.40625 20.359375 -14.421875 20.359375 -13.359375 Z M 14.0625 -13.109375 C 14.0625 -13.609375 13.890625 -14.023438 13.546875 -14.359375 C 13.210938 -14.703125 12.800781 -14.875 12.3125 -14.875 L 8.265625 -14.875 L 8.265625 -11.3125 L 12.3125 -11.3125 C 12.800781 -11.3125 13.210938 -11.484375 13.546875 -11.828125 C 13.890625 -12.171875 14.0625 -12.597656 14.0625 -13.109375 Z M 14.0625 -13.109375 "/></g></g></g><g fill="#090909" fill-opacity="1"><g transform="translate(159.511488, 262.72932)"><g><path d="M 11.640625 -19.59375 C 14.960938 -19.59375 17.53125 -18.742188 19.34375 -17.046875 C 21.15625 -15.347656 22.0625 -12.875 22.0625 -9.625 C 22.0625 -6.382812 21.15625 -3.910156 19.34375 -2.203125 C 17.53125 -0.503906 14.960938 0.34375 11.640625 0.34375 C 8.316406 0.34375 5.753906 -0.5 3.953125 -2.1875 C 2.160156 -3.882812 1.265625 -6.363281 1.265625 -9.625 C 1.265625 -12.894531 2.160156 -15.375 3.953125 -17.0625 C 5.753906 -18.75 8.316406 -19.59375 11.640625 -19.59375 Z M 11.640625 -14.984375 C 10.316406 -14.984375 9.3125 -14.582031 8.625 -13.78125 C 7.9375 -12.976562 7.59375 -11.894531 7.59375 -10.53125 L 7.59375 -8.734375 C 7.59375 -7.367188 7.9375 -6.285156 8.625 -5.484375 C 9.3125 -4.679688 10.316406 -4.28125 11.640625 -4.28125 C 12.972656 -4.28125 13.988281 -4.679688 14.6875 -5.484375 C 15.382812 -6.285156 15.734375 -7.367188 15.734375 -8.734375 L 15.734375 -10.53125 C 15.734375 -11.894531 15.382812 -12.976562 14.6875 -13.78125 C 13.988281 -14.582031 12.972656 -14.984375 11.640625 -14.984375 Z M 11.640625 -14.984375 "/></g></g></g><g fill="#090909" fill-opacity="1"><g transform="translate(182.832302, 262.72932)"><g><path d="M 15.0625 0 L 15.0625 -7.3125 L 8.265625 -7.3125 L 8.265625 0 L 2.078125 0 L 2.078125 -19.265625 L 8.265625 -19.265625 L 8.265625 -12.234375 L 15.0625 -12.234375 L 15.0625 -19.265625 L 21.25 -19.265625 L 21.25 0 Z M 15.0625 0 "/></g></g></g><g fill="#090909" fill-opacity="1"><g transform="translate(206.153116, 262.72932)"><g><path d="M 2.359375 0 L 2.359375 -19.265625 L 8.546875 -19.265625 L 8.546875 0 Z M 2.359375 0 "/></g></g></g><g fill="#090909" fill-opacity="1"><g transform="translate(217.043634, 262.72932)"><g><path d="M 13.15625 -14.34375 L 13.15625 0 L 6.96875 0 L 6.96875 -14.34375 L 0.640625 -14.34375 L 0.640625 -19.265625 L 19.453125 -19.265625 L 19.453125 -14.34375 Z M 13.15625 -14.34375 "/></g></g></g></svg>